<svg width="184" height="65" viewBox="0 0 184 65" fill="none" xmlns="http://www.w3.org/2000/svg">
<path d="M27.016 19.1714C26.0102 17.756 24.0424 17.4194 22.6229 18.4282C21.2044 19.435 20.8709 21.4029 21.8787 22.8224L27.8831 31.2761C27.8174 31.5877 27.7799 31.9119 27.7799 32.2443C27.7799 34.8187 29.8644 36.9052 32.4377 36.9052C33.7926 36.9052 35.0016 36.3185 35.8531 35.3961H42.6079C44.3484 35.3961 45.7585 33.9849 45.7585 32.2453C45.7585 30.5058 44.3483 29.0946 42.6079 29.0946H35.8521C35.1288 28.3109 34.145 27.7877 33.0349 27.6439L27.016 19.1714Z" fill="url(#paint0_linear_2_562)"/>
<path d="M54.6438 22.2053C55.4724 24.0021 56.0852 25.9167 56.4531 27.9189C56.5709 28.5631 57.1597 29.0059 57.8122 28.9466L63.6821 28.4067C64.0322 28.3754 64.3523 28.1992 64.567 27.921C64.7827 27.6416 64.8703 27.2874 64.8129 26.9403C64.248 23.5374 63.1567 20.3158 61.6226 17.3558C61.4496 17.0192 61.1348 16.7794 60.7649 16.6992C60.395 16.6211 60.0093 16.7096 59.7122 16.9452L55.0044 20.6847C54.5511 21.0485 54.4 21.6759 54.6438 22.2053Z" fill="url(#paint1_linear_2_562)"/>
<path d="M50.2612 50.3386C49.7817 50.0103 49.1419 50.051 48.7073 50.4366C44.9197 53.7989 40.0775 55.9958 34.7422 56.4577V53.627C34.7422 52.4659 33.802 51.5268 32.642 51.5268C31.482 51.5268 30.5409 52.4669 30.5409 53.627V56.4557C18.8511 55.4468 9.51785 46.1145 8.50895 34.4237H11.3386C12.4986 34.4237 13.4388 33.4846 13.4388 32.3234C13.4388 31.1624 12.4986 30.2233 11.3386 30.2233H8.50056C9.44899 19.2412 17.7505 10.3488 28.4449 8.47376C29.0494 8.36749 29.4913 7.84423 29.4913 7.23033V1.26348C29.4913 0.898666 29.3329 0.549475 29.0557 0.309738C28.7795 0.0701077 28.4125 -0.0393466 28.0498 0.0127239C12.1963 2.24325 0 15.8569 0 32.3234C0 50.3512 14.6144 64.9656 32.642 64.9656C41.4981 64.9656 49.5087 61.4187 55.387 55.6906C55.6579 55.4259 55.7965 55.0549 55.7642 54.6776C55.7309 54.3003 55.5329 53.9553 55.2202 53.7416L50.2612 50.3386Z" fill="url(#paint2_linear_2_562)"/>
<path d="M36.8391 8.47163C37.6647 8.61551 38.4754 8.79989 39.2686 9.02506C39.8762 9.197 40.5131 8.89584 40.7683 8.31945L43.1635 2.91858C43.3094 2.59032 43.3073 2.21509 43.1592 1.88673C43.0122 1.56049 42.7319 1.30832 42.3891 1.19887C40.7246 0.671469 39.0048 0.267125 37.2373 0.0128301C36.8746 -0.0381777 36.5056 0.070214 36.2295 0.309844C35.9523 0.549581 35.7938 0.898772 35.7938 1.2656V7.22512C35.7927 7.84221 36.2336 8.36642 36.8391 8.47163Z" fill="url(#paint3_linear_2_562)"/>
<path d="M49.8422 15.2963C50.2956 15.758 51.0221 15.8007 51.5285 15.3994L56.154 11.7235C56.4322 11.5035 56.6041 11.1753 56.6292 10.8209C56.6542 10.4654 56.5282 10.1194 56.2832 9.86095C54.5999 8.09226 52.7208 6.51537 50.679 5.15941C50.3696 4.95411 49.984 4.8947 49.6254 4.99895C49.2679 5.10309 48.974 5.35962 48.8238 5.70042L46.4059 11.1513C46.1651 11.6974 46.335 12.3374 46.8175 12.6855C47.8973 13.4712 48.9073 14.3468 49.8422 15.2963Z" fill="url(#paint4_linear_2_562)"/>
<path d="M64.6754 35.1166C64.4085 34.8436 64.0344 34.7039 63.655 34.7394L57.6569 35.2907C57.0847 35.3418 56.622 35.7734 56.526 36.3392C56.0767 39.0167 55.1867 41.54 53.934 43.8413C53.6244 44.4094 53.7933 45.1212 54.3279 45.487L59.1962 48.8284C59.488 49.0296 59.8507 49.0994 60.1956 49.0191C60.5407 48.9389 60.8355 48.7179 61.0107 48.4104C63.1128 44.7114 64.5095 40.5654 65.0254 36.1474C65.0705 35.767 64.9411 35.3898 64.6754 35.1166Z" fill="url(#paint5_linear_2_562)"/>
<path d="M105.135 4.03029H111.223L103.151 32.7028H97.4319L93.9694 15.935L92.9579 10.3912L91.9463 15.935L88.4838 32.7028H82.9205L74.7895 4.03029H81.1504L84.9435 20.448L85.7605 25.0192L86.597 20.5452L89.826 4.03029H96.148L99.5521 20.448L100.427 25.0192L101.303 20.623L105.135 4.03029Z" fill="url(#paint6_linear_2_562)"/>
<path d="M131.395 14.1843C133.185 16.4278 134.08 19.0798 134.08 22.1403C134.08 25.2527 133.185 27.9176 131.395 30.1352C129.606 32.3397 126.889 33.442 123.245 33.442C119.601 33.442 116.884 32.3397 115.094 30.1352C113.305 27.9176 112.41 25.2527 112.41 22.1403C112.41 19.0798 113.305 16.4278 115.094 14.1843C116.884 11.9409 119.601 10.8191 123.245 10.8191C126.889 10.8191 129.606 11.9409 131.395 14.1843ZM123.225 15.5071C121.604 15.5071 120.353 16.0842 119.471 17.2383C118.602 18.3795 118.168 20.0135 118.168 22.1403C118.168 24.2671 118.602 25.9075 119.471 27.0617C120.353 28.2159 121.604 28.793 123.225 28.793C124.846 28.793 126.091 28.2159 126.96 27.0617C127.829 25.9075 128.264 24.2671 128.264 22.1403C128.264 20.0135 127.829 18.3795 126.96 17.2383C126.091 16.0842 124.846 15.5071 123.225 15.5071Z" fill="url(#paint7_linear_2_562)"/>
<path d="M148.727 16.6159C146.497 16.6159 144.999 17.3421 144.234 18.7945C143.806 19.6115 143.592 20.8694 143.592 22.5682V32.7028H138.009V11.4999H143.3V15.1959C144.156 13.7823 144.902 12.8162 145.537 12.2975C146.575 11.4286 147.923 10.9942 149.583 10.9942C149.687 10.9942 149.771 11.0007 149.836 11.0136C149.914 11.0136 150.076 11.0201 150.322 11.0331V16.7131C149.972 16.6742 149.661 16.6483 149.389 16.6353C149.116 16.6224 148.896 16.6159 148.727 16.6159Z" fill="url(#paint8_linear_2_562)"/>
<path d="M153.707 4.03029H159.251V32.7028H153.707V4.03029Z" fill="url(#paint9_linear_2_562)"/>
<path d="M183.975 4.0692V32.7028H178.586V29.7656C177.795 31.0235 176.894 31.9377 175.883 32.5083C174.871 33.0789 173.613 33.3642 172.109 33.3642C169.632 33.3642 167.544 32.3657 165.845 30.3686C164.159 28.3585 163.316 25.7843 163.316 22.6461C163.316 19.0279 164.146 16.1814 165.806 14.1065C167.479 12.0316 169.71 10.9942 172.498 10.9942C173.782 10.9942 174.923 11.2795 175.921 11.8501C176.92 12.4077 177.731 13.1858 178.353 14.1843V4.0692H183.975ZM169.035 22.2376C169.035 24.1957 169.424 25.7584 170.203 26.9255C170.968 28.1056 172.135 28.6957 173.704 28.6957C175.273 28.6957 176.466 28.1121 177.283 26.945C178.1 25.7779 178.509 24.2671 178.509 22.4126C178.509 19.819 177.854 17.9646 176.544 16.8493C175.74 16.175 174.806 15.8378 173.743 15.8378C172.122 15.8378 170.929 16.4538 170.164 17.6857C169.411 18.9047 169.035 20.422 169.035 22.2376Z" fill="url(#paint10_linear_2_562)"/>
<path d="M88.4514 34.888C92.0695 34.888 94.8771 35.8411 96.8742 37.7475C98.8713 39.6538 99.9801 41.8194 100.201 44.2445H96.4268C95.9989 42.403 95.143 40.9441 93.8591 39.8677C92.5883 38.7914 90.7987 38.2532 88.4903 38.2532C85.6762 38.2532 83.4003 39.2453 81.6626 41.2294C79.9378 43.2006 79.0755 46.2286 79.0755 50.3136C79.0755 53.6594 79.8535 56.3762 81.4097 58.4641C82.9789 60.539 85.3131 61.5764 88.4125 61.5764C91.2655 61.5764 93.4377 60.4806 94.929 58.289C95.7201 57.1348 96.3101 55.6176 96.6992 53.7372H100.473C100.136 56.7458 99.0205 59.2681 97.1271 61.3041C94.8577 63.7551 91.7972 64.9805 87.9457 64.9805C84.6258 64.9805 81.8377 63.9755 79.5812 61.9655C76.6115 59.307 75.1267 55.2026 75.1267 49.6522C75.1267 45.4376 76.2419 41.9816 78.4724 39.2842C80.8845 36.3534 84.2108 34.888 88.4514 34.888Z" fill="url(#paint11_linear_2_562)"/>
<path d="M104.83 35.6661H108.332V64.2414H104.83V35.6661Z" fill="url(#paint12_linear_2_562)"/>
<path d="M121.87 61.9849C124.192 61.9849 125.78 61.1096 126.636 59.3589C127.505 57.5952 127.939 55.637 127.939 53.4843C127.939 51.5391 127.628 49.957 127.006 48.738C126.02 46.8187 124.321 45.859 121.909 45.859C119.769 45.859 118.213 46.676 117.241 48.31C116.268 49.944 115.782 51.9151 115.782 54.2235C115.782 56.441 116.268 58.289 117.241 59.7673C118.213 61.2457 119.757 61.9849 121.87 61.9849ZM122.006 42.805C124.691 42.805 126.96 43.6998 128.815 45.4894C130.669 47.279 131.596 49.9116 131.596 53.387C131.596 56.7458 130.779 59.521 129.145 61.7126C127.511 63.9042 124.976 65 121.54 65C118.674 65 116.398 64.0339 114.712 62.1016C113.026 60.1564 112.183 57.5498 112.183 54.2818C112.183 50.7804 113.071 47.9923 114.848 45.9174C116.625 43.8425 119.011 42.805 122.006 42.805Z" fill="url(#paint13_linear_2_562)"/>
<path d="M143.812 42.805C146.16 42.805 148.066 43.3756 149.531 44.5168C151.01 45.658 151.898 47.6227 152.196 50.4108H148.792C148.585 49.127 148.111 48.0636 147.372 47.2207C146.633 46.3648 145.446 45.9368 143.812 45.9368C141.582 45.9368 139.987 47.0262 139.027 49.2048C138.405 50.6183 138.093 52.3625 138.093 54.4375C138.093 56.5253 138.534 58.2825 139.416 59.709C140.298 61.1355 141.686 61.8487 143.579 61.8487C145.031 61.8487 146.179 61.4078 147.022 60.526C147.878 59.6312 148.468 58.4122 148.792 56.869H152.196C151.807 59.6312 150.835 61.6542 149.278 62.9381C147.722 64.2089 145.732 64.8444 143.307 64.8444C140.583 64.8444 138.411 63.8523 136.79 61.8682C135.169 59.8711 134.359 57.3812 134.359 54.3985C134.359 50.7415 135.247 47.895 137.024 45.859C138.8 43.823 141.063 42.805 143.812 42.805Z" fill="url(#paint14_linear_2_562)"/>
<path d="M155.62 35.6661H158.985V52.2588L167.972 43.408H172.446L164.471 51.2084L172.893 64.2414H168.419L161.922 53.7372L158.985 56.4216V64.2414H155.62V35.6661Z" fill="url(#paint15_linear_2_562)"/>
<defs>
<linearGradient id="paint0_linear_2_562" x1="184.255" y1="-0.0171612" x2="-12.0676" y2="65.0172" gradientUnits="userSpaceOnUse">
<stop stop-color="#001B62"/>
<stop offset="1" stop-color="#0069E3"/>
</linearGradient>
<linearGradient id="paint1_linear_2_562" x1="184.255" y1="-0.0171612" x2="-12.0676" y2="65.0172" gradientUnits="userSpaceOnUse">
<stop stop-color="#001B62"/>
<stop offset="1" stop-color="#0069E3"/>
</linearGradient>
<linearGradient id="paint2_linear_2_562" x1="184.255" y1="-0.0171612" x2="-12.0676" y2="65.0172" gradientUnits="userSpaceOnUse">
<stop stop-color="#001B62"/>
<stop offset="1" stop-color="#0069E3"/>
</linearGradient>
<linearGradient id="paint3_linear_2_562" x1="184.255" y1="-0.0171612" x2="-12.0676" y2="65.0172" gradientUnits="userSpaceOnUse">
<stop stop-color="#001B62"/>
<stop offset="1" stop-color="#0069E3"/>
</linearGradient>
<linearGradient id="paint4_linear_2_562" x1="184.255" y1="-0.0171612" x2="-12.0676" y2="65.0172" gradientUnits="userSpaceOnUse">
<stop stop-color="#001B62"/>
<stop offset="1" stop-color="#0069E3"/>
</linearGradient>
<linearGradient id="paint5_linear_2_562" x1="184.255" y1="-0.0171612" x2="-12.0676" y2="65.0172" gradientUnits="userSpaceOnUse">
<stop stop-color="#001B62"/>
<stop offset="1" stop-color="#0069E3"/>
</linearGradient>
<linearGradient id="paint6_linear_2_562" x1="184.255" y1="-0.0171612" x2="-12.0676" y2="65.0172" gradientUnits="userSpaceOnUse">
<stop stop-color="#001B62"/>
<stop offset="1" stop-color="#0069E3"/>
</linearGradient>
<linearGradient id="paint7_linear_2_562" x1="184.255" y1="-0.0171612" x2="-12.0676" y2="65.0172" gradientUnits="userSpaceOnUse">
<stop stop-color="#001B62"/>
<stop offset="1" stop-color="#0069E3"/>
</linearGradient>
<linearGradient id="paint8_linear_2_562" x1="184.255" y1="-0.0171612" x2="-12.0676" y2="65.0172" gradientUnits="userSpaceOnUse">
<stop stop-color="#001B62"/>
<stop offset="1" stop-color="#0069E3"/>
</linearGradient>
<linearGradient id="paint9_linear_2_562" x1="184.255" y1="-0.0171612" x2="-12.0676" y2="65.0172" gradientUnits="userSpaceOnUse">
<stop stop-color="#001B62"/>
<stop offset="1" stop-color="#0069E3"/>
</linearGradient>
<linearGradient id="paint10_linear_2_562" x1="184.255" y1="-0.0171612" x2="-12.0676" y2="65.0172" gradientUnits="userSpaceOnUse">
<stop stop-color="#001B62"/>
<stop offset="1" stop-color="#0069E3"/>
</linearGradient>
<linearGradient id="paint11_linear_2_562" x1="184.255" y1="-0.0171612" x2="-12.0676" y2="65.0172" gradientUnits="userSpaceOnUse">
<stop stop-color="#001B62"/>
<stop offset="1" stop-color="#0069E3"/>
</linearGradient>
<linearGradient id="paint12_linear_2_562" x1="184.255" y1="-0.0171612" x2="-12.0676" y2="65.0172" gradientUnits="userSpaceOnUse">
<stop stop-color="#001B62"/>
<stop offset="1" stop-color="#0069E3"/>
</linearGradient>
<linearGradient id="paint13_linear_2_562" x1="184.255" y1="-0.0171612" x2="-12.0676" y2="65.0172" gradientUnits="userSpaceOnUse">
<stop stop-color="#001B62"/>
<stop offset="1" stop-color="#0069E3"/>
</linearGradient>
<linearGradient id="paint14_linear_2_562" x1="184.255" y1="-0.0171612" x2="-12.0676" y2="65.0172" gradientUnits="userSpaceOnUse">
<stop stop-color="#001B62"/>
<stop offset="1" stop-color="#0069E3"/>
</linearGradient>
<linearGradient id="paint15_linear_2_562" x1="184.255" y1="-0.0171612" x2="-12.0676" y2="65.0172" gradientUnits="userSpaceOnUse">
<stop stop-color="#001B62"/>
<stop offset="1" stop-color="#0069E3"/>
</linearGradient>
</defs>
</svg>
